Coordinates
version=1
nRows=26
nColumns=24
inDegrees=yes

Units are S.I. units (second, meters, Newtons, ...)
Angles are in degrees.

endheader
time	pelvis_tilt	pelvis_list	pelvis_rotation	pelvis_tx	pelvis_ty	pelvis_tz	hip_flexion_r	hip_adduction_r	hip_rotation_r	knee_angle_r	ankle_angle_r	subtalar_angle_r	mtp_angle_r	hip_flexion_l	hip_adduction_l	hip_rotation_l	knee_angle_l	ankle_angle_l	subtalar_angle_l	mtp_angle_l	lumbar_extension	lumbar_bending	lumbar_rotation
      4.38000000	    -10.37399515	     -1.29795166	      9.65049998	     -2.33879434	     -0.02380708	      0.43521744	     28.41650075	     -2.81907604	    -16.02588825	     -4.63077983	     -7.48793471	      8.40310764	      8.75779682	     -2.42863841	      0.34283997	      9.77432531	    -18.16927713	      3.51963756	     13.49175193	     16.13731953	      8.56278002	     -0.87314611	    -11.15422428
      4.38500000	    -10.39253437	     -1.49804707	      9.66938777	     -2.33191443	     -0.02396018	      0.43571275	     28.24749982	     -2.54594553	    -15.92552114	     -4.99347105	     -8.14640843	      8.07203959	      8.80787904	     -2.25869295	      0.01112664	      9.46223380	    -19.10865057	      2.98033938	     14.12555252	     16.95257892	      8.75358297	     -0.66386204	    -11.20735678
      4.39000000	    -10.39651489	     -1.66356503	      9.63554728	     -2.32509773	     -0.02403749	      0.43637007	     28.04601863	     -2.26545620	    -15.69318940	     -5.26897886	     -9.06769910	      7.42357161	      8.94236908	     -2.08071032	     -0.30202446	      9.08545036	    -20.05406901	      2.29015401	     14.78938553	     18.00542340	      8.90552914	     -0.48904342	    -11.16338622
      4.39500000	    -10.40154142	     -1.92660751	      9.62114822	     -2.31819156	     -0.02407800	      0.43696858	     27.80521079	     -1.90220600	    -15.48763780	     -5.43645017	    -10.09007624	      6.71106350	      9.07580345	     -1.82657582	     -0.72319645	      8.63598736	    -21.09300717	      1.52322317	     15.42403731	     19.04023131	      9.09336601	     -0.21000861	    -11.18950226
      4.40000000	    -10.42353748	     -2.28033332	      9.61090948	     -2.31124628	     -0.02404793	      0.43760871	     27.60327987	     -1.45917544	    -15.49147862	     -5.60506866	    -11.15308271	      6.07114373	      9.02664290	     -1.51082213	     -1.25603259	      8.23142747	    -22.16933391	      0.73690292	     16.23130112	     19.97293587	      9.31611760	      0.15460265	    -11.22795087
      4.40500000	    -10.40414455	     -2.57371051	      9.50656784	     -2.30452765	     -0.02396346	      0.43840627	     27.35007272	     -1.00981673	    -15.01600539	     -5.69608045	    -12.44387930	      4.81083396	      9.08027878	     -1.17883469	     -1.73616996	      7.66243504	    -23.30280346	     -0.26715799	     16.88234321	     21.28871625	      9.44531682	      0.48335693	    -11.20006979
      4.41000000	    -10.40504054	     -2.96323524	      9.46432834	     -2.29764720	     -0.02382953	      0.43912985	     27.10859853	     -0.49841801	    -14.75273770	     -5.78128025	    -13.56156449	      3.66392486	      8.98660666	     -0.77718330	     -2.33142759	      7.15806844	    -24.47225894	     -1.37051408	     17.61805267	     22.48827381	      9.63744717	      0.89277676	    -11.19137877
      4.41500000	    -10.39704093	     -3.34535815	      9.31391511	     -2.29077467	     -0.02363611	      0.43992960	     26.85952304	      0.06377525	    -14.18734610	     -5.85580813	    -14.71626875	      2.25452712	      8.85603220	     -0.38594568	     -2.90715101	      6.64508568	    -25.61215127	     -2.73797989	     18.10040802	     23.87616605	      9.81666074	      1.32437351	    -11.11608951
      4.42000000	    -10.38638129	     -3.75598703	      9.22110452	     -2.28398849	     -0.02343117	      0.44066515	     26.64501738	      0.62616854	    -13.73388028	     -6.03169575	    -15.57806052	      0.95247827	      8.53247533	      0.08788069	     -3.52204680	      6.17815226	    -26.84685386	     -4.17731962	     18.66636733	     25.24567008	      9.98697220	      1.77800963	    -11.08617156
      4.42500000	    -10.37516519	     -4.18769047	      9.15093659	     -2.27732330	     -0.02324014	      0.44139345	     26.47447155	      1.20198725	    -13.31842089	     -6.31532028	    -16.16626712	     -0.25869324	      8.04733576	      0.63981589	     -4.16250126	      5.76238386	    -28.17086573	     -5.68676812	     19.26941682	     26.57819812	     10.14054512	      2.24364709	    -11.10150211
      4.43000000	    -10.38338852	     -4.62854255	      9.03405852	     -2.27051788	     -0.02304494	      0.44211063	     26.32234923	      1.81556783	    -12.83134262	     -6.63920831	    -16.53734051	     -1.46054485	      7.47554503	      1.20442210	     -4.79427677	      5.40615888	    -29.45410457	     -7.43195960	     19.69581224	     27.94239156	     10.34136881	      2.73033481	    -11.06023748
      4.43500000	    -10.38960824	     -5.03664077	      8.89597583	     -2.26389195	     -0.02285131	      0.44277217	     26.19697126	      2.40229065	    -12.27938816	     -7.04227141	    -16.71395686	     -2.56727961	      6.86435822	      1.81398802	     -5.36179240	      5.13444605	    -30.77720423	     -9.34369400	     19.93991300	     29.37809692	     10.50348538	      3.20018938	    -10.99332635
      4.44000000	    -10.38391213	     -5.41991102	      8.75121733	     -2.25742559	     -0.02268308	      0.44338758	     26.09284799	      2.96408344	    -11.75177103	     -7.53371204	    -16.64880900	     -3.51462668	      6.27696137	      2.46100900	     -5.87926699	      4.93370143	    -32.14829646	    -11.36351243	     20.03553451	     30.82271642	     10.62159143	      3.65716683	    -10.92218695
      4.44500000	    -10.39589094	     -5.82088729	      8.60563976	     -2.25095690	     -0.02254965	      0.44393685	     26.00760780	      3.53869010	    -11.28473032	     -8.05085530	    -16.41557163	     -4.30430506	      5.70082882	      3.16306954	     -6.38783704	      4.82770464	    -33.55449370	    -13.44821718	     20.07679672	     32.13215432	     10.76481989	      4.13276676	    -10.85151132
      4.45000000	    -10.41677355	     -6.21887299	      8.44739907	     -2.24457062	     -0.02245930	      0.44444171	     25.93452054	      4.10878506	    -10.85470876	     -8.58710646	    -16.04682409	     -4.94417993	      5.16727353	      3.91769435	     -6.86191948	      4.79151792	    -35.01044742	    -15.57407138	     20.00024206	     33.32020908	     10.90420381	      4.61039583	    -10.76548400
      4.45500000	    -10.43478922	     -6.61392299	      8.27967520	     -2.23830930	     -0.02240570	      0.44489154	     25.85961024	      4.66926919	    -10.48146622	     -9.12848309	    -15.57875580	     -5.40559694	      4.71820521	      4.72128075	     -7.30559183	      4.79628888	    -36.53081991	    -17.69686415	     19.79354679	     34.35471894	     11.01886270	      5.09796153	    -10.66855621
      4.46000000	    -10.44772522	     -7.01770912	      8.11328669	     -2.23207092	     -0.02237869	      0.44527251	     25.75450384	      5.23097966	    -10.18213144	     -9.62740251	    -15.04676441	     -5.73400311	      4.38318322	      5.55900437	     -7.72846799	      4.85411289	    -38.10667581	    -19.77518265	     19.44784049	     35.10911634	     11.12803492	      5.59768971	    -10.54972994
      4.46500000	    -10.45695710	     -7.41256180	      7.92940484	     -2.22597179	     -0.02239105	      0.44565454	     25.63871079	      5.78229199	     -9.92605639	    -10.10689410	    -14.47384661	     -5.92131375	      4.12847270	      6.44193404	     -8.12438285	      4.90396390	    -39.74610798	    -21.77584790	     18.92067054	     35.70306594	     11.20644561	      6.09177143	    -10.42564614
      4.47000000	    -10.44218113	     -7.81044401	      7.74376028	     -2.21995543	     -0.02240606	      0.44599525	     25.47250710	      6.33289547	     -9.73120296	    -10.53102438	    -13.89449337	     -5.99119216	      3.98196200	      7.34131407	     -8.50872321	      4.94946590	    -41.43822959	    -23.65836156	     18.20336945	     36.03657274	     11.24401309	      6.59881157	    -10.29209015
      4.47500000	    -10.42945957	     -8.20643107	      7.55928662	     -2.21393212	     -0.02246229	      0.44635687	     25.26213940	      6.88062375	     -9.56235517	    -10.87409709	    -13.26314199	     -5.95302776	      3.90842018	      8.27073792	     -8.88878437	      4.96442088	    -43.15868312	    -25.38132005	     17.26772555	     36.19607421	     11.28444645	      7.08881679	    -10.14292039
      4.48000000	    -10.39493715	     -8.58787077	      7.37843773	     -2.20797581	     -0.02248565	      0.44671795	     25.00110278	      7.41296878	     -9.44720846	    -11.16041289	    -12.65488735	     -5.85067757	      3.90322386	      9.19953824	     -9.24207591	      4.98439619	    -44.89133396	    -26.93026550	     16.09759275	     36.11242119	     11.28842318	      7.57138528	     -9.98588376
      4.48500000	    -10.36916427	     -8.93466580	      7.19730393	     -2.20211320	     -0.02252786	      0.44710829	     24.72220112	      7.90412370	     -9.34526017	    -11.39953764	    -12.00334344	     -5.61566448	      3.94592064	     10.15798255	     -9.55529492	      4.97226998	    -46.63121090	    -28.23794419	     14.66317397	     35.86610229	     11.27978806	      8.00353430	     -9.83403177
      4.49000000	    -10.29449661	     -9.27646994	      7.05795126	     -2.19623248	     -0.02248133	      0.44750896	     24.33939406	      8.39149135	     -9.31569784	    -11.53081280	    -11.42468194	     -5.41714038	      4.03516766	     11.07474919	     -9.86201905	      4.99292225	    -48.34562900	    -29.28304861	     13.03169428	     35.38134571	     11.22643433	      8.41704536	     -9.63681756
      4.49500000	    -10.22495987	     -9.55843826	      6.91230931	     -2.19043249	     -0.02240567	      0.44797042	     23.94081810	      8.81803958	     -9.27214010	    -11.63521570	    -10.80692020	     -5.10308676	      4.18113041	     11.99738346	    -10.11040441	      4.96981970	    -50.03079719	    -30.06152929	     11.18167980	     34.70764985	     11.15543190	      8.75896429	     -9.48149587
      4.50000000	    -10.11186685	     -9.82979354	      6.80885978	     -2.18462699	     -0.02224543	      0.44846397	     23.45939258	      9.23716404	     -9.29892658	    -11.65930127	    -10.26196987	     -4.85821442	      4.32921185	     12.87182923	    -10.34758287	      4.98931100	    -51.65914618	    -30.53434907	      9.16797410	     33.91573913	     11.04458664	      9.07068866	     -9.26488914
      4.50500000	     -9.99640461	    -10.01996422	      6.70890130	     -2.17888952	     -0.02201645	      0.44899114	     22.95105044	      9.57184291	     -9.25503123	    -11.66310448	     -9.67675909	     -4.52072601	      4.52372396	     13.72901818	    -10.49730819	      4.98808846	    -53.22594816	    -30.77831415	      7.00014040	     32.91049634	     10.90944204	      9.29179120	     -9.12089703
